<?xml version="1.0" encoding="UTF-8"?>
<svg width="990" height="990" version="1.1" viewBox="-99 -99 198 198" xmlns="http://www.w3.org/2000/svg" xmlns:cc="http://creativecommons.org/ns#" xmlns:dc="http://purl.org/dc/elements/1.1/" xmlns:rdf="http://www.w3.org/1999/02/22-rdf-syntax-ns#">
 <metadata>
  <rdf:RDF>
   <cc:Work rdf:about="">
    <dc:format>image/svg+xml</dc:format>
    <dc:type rdf:resource="http://purl.org/dc/dcmitype/StillImage"/>
    <dc:title/>
   </cc:Work>
  </rdf:RDF>
 </metadata>
 <g transform="matrix(.42747 0 0 .42747 -102.59 -102.14)">
  <path d="m462.86 180.59c-15.245-46.921-65.642-72.599-112.56-57.354-9.44 3.067-18.021 7.56-25.58 13.159 2.987-8.92 4.609-18.467 4.609-28.393 0-49.335-39.993-89.33-89.329-89.33-49.335 0-89.33 39.995-89.33 89.33 0 9.926 1.622 19.473 4.609 28.393-7.56-5.599-16.139-10.091-25.578-13.159-46.921-15.245-97.316 10.433-112.56 57.354-15.246 46.92 10.433 97.316 57.354 112.56 9.453 3.072 19.049 4.479 28.469 4.39-7.672 5.464-14.618 12.22-20.46 20.261-28.998 39.912-20.149 95.777 19.764 124.78 39.913 29 95.778 20.149 124.78-19.762 5.851-8.054 10.134-16.762 12.959-25.762 2.826 9.002 7.108 17.709 12.959 25.763 28.997 39.911 84.861 48.76 124.77 19.761 39.914-28.998 48.762-84.863 19.764-124.78-5.843-8.041-12.787-14.798-20.461-20.262 9.421 0.091 19.018-1.316 28.472-4.389 46.922-15.245 72.599-65.642 57.353-112.56z" fill="#fd1"/>
  <g fill="none" stroke="#000" stroke-miterlimit="10" stroke-width="3">
   <line x1="239.5" x2="239.5" y1="108" y2="247"/>
   <line x1="189.94" x2="237.48" y1="116.92" y2="247.53"/>
   <line x1="289.12" x2="241.58" y1="116.57" y2="247.19"/>
  </g>
  <g fill="#fd1" stroke="#000" stroke-miterlimit="10" stroke-width="3">
   <circle cx="240" cy="108" r="13.69"/>
   <circle cx="289.59" cy="116.74" r="13.69"/>
   <circle cx="190.41" cy="116.74" r="13.69"/>
  </g>
  <g fill="none" stroke="#000" stroke-miterlimit="10" stroke-width="3">
   <line x1="101.94" x2="234.14" y1="208.67" y2="251.62"/>
   <line x1="95.106" x2="234.02" y1="258.56" y2="253.71"/>
   <line x1="125.43" x2="234.96" y1="164.12" y2="249.7"/>
  </g>
  <g fill="#fd1" stroke="#000" stroke-miterlimit="10" stroke-width="3">
   <circle cx="102.1" cy="208.19" r="13.691"/>
   <circle cx="125.74" cy="163.73" r="13.69"/>
   <circle cx="95.088" cy="258.06" r="13.69"/>
  </g>
  <g fill="none" stroke="#000" stroke-miterlimit="10" stroke-width="3">
   <line x1="155.18" x2="236.88" y1="370.6" y2="258.15"/>
   <line x1="200.52" x2="238.83" y1="392.52" y2="258.9"/>
   <line x1="120.07" x2="235.31" y1="334.5" y2="256.77"/>
  </g>
  <g fill="#fd1" stroke="#000" stroke-miterlimit="10" stroke-width="3">
   <circle cx="154.77" cy="370.31" r="13.69"/>
   <circle cx="119.79" cy="334.08" r="13.69"/>
   <circle cx="200.03" cy="392.38" r="13.69"/>
  </g>
  <g fill="none" stroke="#000" stroke-miterlimit="10" stroke-width="3">
   <line x1="325.63" x2="243.93" y1="370.01" y2="257.56"/>
   <line x1="360.49" x2="245.25" y1="333.67" y2="255.94"/>
   <line x1="280.45" x2="242.13" y1="392.24" y2="258.63"/>
  </g>
  <g fill="#fd1" stroke="#000" stroke-miterlimit="10" stroke-width="3">
   <circle cx="325.23" cy="370.31" r="13.691"/>
   <path d="m266.81 396.16c-2.085-7.27 2.119-14.85 9.388-16.934s14.851 2.117 16.935 9.387c2.083 7.267-2.119 14.85-9.387 16.934-7.27 2.085-14.852-2.119-16.936-9.387z"/>
   <circle cx="360.21" cy="334.08" r="13.69"/>
  </g>
  <g fill="none" stroke="#000" stroke-miterlimit="10" stroke-width="3">
   <line x1="377.75" x2="245.55" y1="207.72" y2="250.67"/>
   <line x1="353.95" x2="244.42" y1="163.33" y2="248.91"/>
   <line x1="384.93" x2="246.01" y1="257.56" y2="252.71"/>
  </g>
  <g fill="#fd1" stroke="#000" stroke-miterlimit="10" stroke-width="3">
   <circle cx="377.9" cy="208.19" r="13.69"/>
   <path d="m384.43 271.74c-7.559-0.263-13.468-6.604-13.204-14.161s6.604-13.469 14.161-13.204c7.554 0.265 13.468 6.604 13.203 14.16-0.264 7.558-6.605 13.469-14.16 13.205z"/>
   <circle cx="354.26" cy="163.73" r="13.691"/>
  </g>
  <g fill="none" stroke="#000" stroke-miterlimit="10" stroke-width="3">
   <line x1="155.28" x2="240" y1="136.39" y2="253"/>
   <line x1="102.92" x2="240" y1="297.54" y2="253"/>
   <line x1="240" x2="240" y1="400" y2="253"/>
   <line x1="379" x2="239.85" y1="297.98" y2="253.48"/>
   <line x1="325.05" x2="240.4" y1="135.4" y2="253.29"/>
  </g>
  <circle cx="240" cy="253" r="46.333" fill="#fd1" stroke="#000" stroke-miterlimit="10" stroke-width="3"/>
  <path d="m462.86 180.59c-15.245-46.921-65.642-72.599-112.56-57.354-9.44 3.067-18.021 7.56-25.58 13.159 2.987-8.92 4.609-18.467 4.609-28.393 0-49.335-39.993-89.33-89.329-89.33-49.335 0-89.33 39.995-89.33 89.33 0 9.926 1.622 19.473 4.609 28.393-7.56-5.599-16.139-10.091-25.578-13.159-46.921-15.245-97.316 10.433-112.56 57.354-15.246 46.92 10.433 97.316 57.354 112.56 9.453 3.072 19.049 4.479 28.469 4.39-7.672 5.464-14.618 12.22-20.46 20.261-28.998 39.912-20.149 95.777 19.764 124.78 39.913 29 95.778 20.149 124.78-19.762 5.851-8.054 10.134-16.762 12.959-25.762 2.826 9.002 7.108 17.709 12.959 25.763 28.997 39.911 84.861 48.76 124.77 19.761 39.914-28.998 48.762-84.863 19.764-124.78-5.843-8.041-12.787-14.798-20.461-20.262 9.421 0.091 19.018-1.316 28.472-4.389 46.922-15.245 72.599-65.642 57.353-112.56z" fill="none" stroke="#000" stroke-miterlimit="10" stroke-width="4"/>
 </g>
</svg>
